:SAMPLES-PER-SECOND 30
:FULLY-SPECIFIED
:DEGREES
99
root  -1.86067 37.5324 -13.295 -56.3602 -84.9378 50.6937
RightUpLeg  -22.1425 -8.75112 -9.05067
RightLeg  3.24971 6.64589 -1.1121
RightFoot  -6.13626 -0.344583 6.79139
RightToes  -8.14909e-010 0 -3.6325e-017
Spine  6.96855 -0.180327 0.271986
Spine1  8.4879 0.324753 -2.23075
HEad  -11.1473 12.4829 -7.53842
LeftShoulder1  -0.828306 5.58337 -33.6558
LeftArm  -3.70423 12.0265 -39.1558
LeftForeArm  27.2839 -12.9855 -6.71419
LeftHand  0.0184987 9.71883 1.82815
RightShoulder  -1.13595 -6.58603 30.3248
RightArm  7.86671 -20.3866 36.1557
RightForeArm  17.9666 9.05195 3.56287
RightHand  0.0329287 1.74804 0.406481
LeftUpLeg  16.9076 4.6155 -3.30894
LeftLeg  16.5863 -2.28066 0.28181
LeftFoot  -25.0974 0.622362 3.91121
LeftToes  1.648e-009 -9.21574e-011 2.55256e-011
100
root  -3.47687 37.3289 -13.6426 -38.4062 -84.5002 32.8399
RightUpLeg  -23.7315 -7.10992 -8.87502
RightLeg  10.2554 2.76469 -0.513602
RightFoot  -0.690118 -0.453489 4.86319
RightToes  -8.14909e-010 0 -3.6325e-017
Spine  6.78334 -0.441257 1.1366
Spine1  8.91377 -0.267791 -0.843226
HEad  -11.7232 12.8368 -8.17346
LeftShoulder1  -0.859525 5.63985 -34.0594
LeftArm  -2.98866 11.7029 -38.9542
LeftForeArm  24.3831 -14.9101 -5.99921
LeftHand  0.0185906 8.6693 2.18315
RightShoulder  -1.0733 -6.45993 29.7773
RightArm  7.65455 -19.9444 35.8907
RightForeArm  17.4228 8.1234 3.4811
RightHand  -0.0211586 1.98215 -0.46253
LeftUpLeg  18.8049 2.01521 -1.91029
LeftLeg  17.6853 -1.84897 0.18921
LeftFoot  -25.5941 0.30101 1.16914
LeftToes  1.648e-009 -9.21574e-011 2.55256e-011
101
root  -5.15509 37.1464 -13.9988 -22.3942 -84.0094 16.5548
RightUpLeg  -24.6015 -6.51711 -8.08595
RightLeg  16.3605 2.69493 0.534073
RightFoot  5.68534 -0.601765 4.24985
RightToes  -8.14909e-010 0 -3.6325e-017
Spine  7.41753 -0.732809 3.11085
Spine1  8.33755 -0.479087 -0.536501
HEad  -11.0578 12.9374 -8.87689
LeftShoulder1  -0.857081 5.62328 -34.2571
LeftArm  -0.00416561 11.634 -38.515
LeftForeArm  21.0087 -17.0807 -5.5417
LeftHand  -0.00473185 6.43741 3.01114
RightShoulder  -1.12581 -6.59179 29.929
RightArm  7.13547 -19.1171 35.2024
RightForeArm  18.8392 7.54809 3.17254
RightHand  0.100724 1.78336 1.48845
LeftUpLeg  20.3496 -1.31531 -0.561796
LeftLeg  20.3175 -0.817453 -0.0542526
LeftFoot  -25.0613 -0.154144 -2.51751
LeftToes  1.648e-009 -9.21574e-011 2.55256e-011
102
root  -6.87075 36.9396 -14.2842 -4.90593 -84.5503 -1.56485
RightUpLeg  -24.9992 -6.22172 -5.92853
RightLeg  23.0802 3.33589 1.38127
RightFoot  4.95128 -0.619201 4.53662
RightToes  -8.14909e-010 0 -3.6325e-017
Spine  8.13297 -0.899166 7.414
Spine1  8.17712 0.215106 -2.31039
HEad  -11.0129 13.4871 -9.40511
LeftShoulder1  -0.825838 5.53332 -34.4425
LeftArm  1.86123 11.7468 -38.6189
LeftForeArm  19.0304 -19.5201 -4.7561
LeftHand  0.00721623 6.35802 4.30465
RightShoulder  -1.1916 -6.72437 30.4885
RightArm  6.7205 -16.9903 34.6531
RightForeArm  17.5744 6.78531 3.08795
RightHand  0.0308135 2.22476 0.285028
LeftUpLeg  20.761 -1.44654 2.28576
LeftLeg  25.9363 -1.2435 -0.323141
LeftFoot  -23.0223 -0.541866 -6.82265
LeftToes  1.648e-009 -9.21574e-011 2.55256e-011
103
root  -8.42743 36.8808 -14.5731 12.5271 -84.6896 -18.6502
RightUpLeg  -25.37 -7.91265 -3.30367
RightLeg  27.6137 4.99566 2.591
RightFoot  2.66396 -0.245444 2.12928
RightToes  -8.14909e-010 0 -3.6325e-017
Spine  7.89533 -0.762284 11.3732
Spine1  8.49976 1.23079 -3.55929
HEad  -10.6534 13.3581 -9.60891
LeftShoulder1  -0.606902 5.04267 -33.319
LeftArm  1.68316 12.8326 -40.2691
LeftForeArm  19.5262 -22.4556 -4.0481
LeftHand  -0.0137358 5.78731 4.18925
RightShoulder  -1.15388 -6.62341 30.4641
RightArm  6.22435 -14.4952 35.0374
RightForeArm  17.2918 6.2032 3.03932
RightHand  0.0990358 2.12225 1.34973
LeftUpLeg  17.4019 -0.986153 4.859
LeftLeg  34.8224 -0.372592 0.10818
LeftFoot  -16.287 -0.330138 -9.89176
LeftToes  1.648e-009 -9.21574e-011 2.55256e-011
104
root  -9.87514 36.9445 -14.909 23.2259 -83.278 -28.9931
RightUpLeg  -24.6641 -9.22588 -1.20863
RightLeg  30.566 4.96787 2.91023
RightFoot  -0.83081 -0.0796553 0.828116
RightToes  -8.14909e-010 0 -3.6325e-017
Spine  8.47218 -0.859831 13.0805
Spine1  7.59104 1.27442 -2.65793
HEad  -10.319 13.6781 -9.87476
LeftShoulder1  -0.674286 5.20415 -33.4894
LeftArm  3.18796 13.1881 -40.562
LeftForeArm  19.4307 -25.5662 -4.41669
LeftHand  -0.0563687 4.49931 4.72599
RightShoulder  -1.09749 -6.46879 30.4815
RightArm  6.80142 -10.4395 34.9785
RightForeArm  16.5265 5.3154 3.48364
RightHand  0.0797248 2.44838 0.994724
LeftUpLeg  11.1359 -0.697735 7.3446
LeftLeg  45.8547 1.83815 2.56283
LeftFoot  -2.33643 0.444221 -7.10576
LeftToes  1.648e-009 -9.21574e-011 2.55256e-011
105
root  -11.208 37.0409 -15.1951 28.8851 -81.6333 -34.4984
RightUpLeg  -23.2846 -9.36397 0.512311
RightLeg  32.2942 3.98202 2.45936
RightFoot  -3.88884 -0.0537302 0.435319
RightToes  -8.14909e-010 0 -3.6325e-017
Spine  9.04072 -0.830603 14.8885
Spine1  7.06848 1.58605 -2.19656
HEad  -10.3091 13.3075 -9.05376
LeftShoulder1  -0.703296 5.26511 -33.7686
LeftArm  4.36996 12.5004 -40.9994
LeftForeArm  20.3836 -28.1268 -4.96507
LeftHand  -0.0315684 5.16553 4.10286
RightShoulder  -1.08719 -6.40525 30.9228
RightArm  7.96309 -5.19887 34.8681
RightForeArm  16.3342 4.49222 4.24232
RightHand  0.0455872 2.74827 0.43389
LeftUpLeg  4.21286 -1.30989 8.60283
LeftLeg  55.8223 3.67256 6.1728
LeftFoot  10.4154 0.189351 -0.909779
LeftToes  1.648e-009 -9.21574e-011 2.55256e-011
106
root  -12.5438 37.3284 -15.4263 27.765 -80.9485 -33.7658
RightUpLeg  -20.3961 -9.90254 0.968917
RightLeg  32.3071 3.90208 2.40021
RightFoot  -6.19649 -0.05473 0.275752
RightToes  -8.14909e-010 0 -3.6325e-017
Spine  9.53437 -0.485063 15.8585
Spine1  7.28217 2.26007 -2.4375
HEad  -10.1101 12.5507 -8.46579
LeftShoulder1  -0.616281 5.04451 -33.8356
LeftArm  5.51492 11.5561 -41.8333
LeftForeArm  21.7125 -30.0262 -5.33579
LeftHand  -0.0295243 5.22866 3.86325
RightShoulder  -1.0186 -6.24814 30.5616
RightArm  9.1832 0.610554 35.7703
RightForeArm  16.8798 3.4653 5.08363
RightHand  0.0446483 1.87438 0.550422
LeftUpLeg  -0.883098 -1.53898 8.3994
LeftLeg  62.2197 2.09691 4.86562
LeftFoot  7.49003 -0.0153266 -0.215751
LeftToes  1.648e-009 -9.21574e-011 2.55256e-011
107
root  -13.8732 37.6788 -15.5913 25.8291 -80.4265 -32.0194
RightUpLeg  -17.1544 -10.6595 1.09622
RightLeg  31.2166 3.96484 2.33547
RightFoot  -8.05949 -0.0560719 0.0655472
RightToes  -8.14909e-010 0 -3.6325e-017
Spine  9.44345 -0.368368 16.9953
Spine1  7.53038 2.83726 -3.88395
HEad  -9.41353 12.0877 -8.11797
LeftShoulder1  -0.573093 4.94718 -33.544
LeftArm  6.25242 11.478 -42.2096
LeftForeArm  23.2249 -32.1344 -5.75466
LeftHand  -0.0177367 5.63713 4.10807
RightShoulder  -0.941145 -6.04688 30.4245
RightArm  8.92308 6.63532 37.3395
RightForeArm  17.8064 2.57685 5.35567
RightHand  0.0120217 2.47287 -0.00460947
LeftUpLeg  -5.97629 -2.14734 7.35877
LeftLeg  65.5788 0.185873 1.18449
LeftFoot  4.86273 0.147852 -1.23465
LeftToes  1.648e-009 -9.21574e-011 2.55256e-011
108
root  -15.2352 38.0231 -15.707 24.6702 -80.3634 -30.8188
RightUpLeg  -13.9067 -11.2275 1.0021
RightLeg  29.6546 4.36633 2.42864
RightFoot  -9.75131 -0.0675717 0.106182
RightToes  -8.14909e-010 0 -3.6325e-017
Spine  9.12042 0.148916 18.106
Spine1  7.50287 3.69145 -5.10708
HEad  -8.58887 11.2391 -8.10134
LeftShoulder1  -0.516313 4.80456 -33.5316
LeftArm  7.06147 11.5352 -42.4155
LeftForeArm  24.3958 -33.1349 -5.93964
LeftHand  -0.0274997 5.33242 4.26677
RightShoulder  -0.853158 -5.87276 29.3908
RightArm  8.29238 11.5572 39.1155
RightForeArm  16.8591 2.80662 5.3777
RightHand  -0.0539205 3.0579 -0.984079
LeftUpLeg  -10.6069 -2.05544 5.94428
LeftLeg  65.9871 -0.542584 -0.621105
LeftFoot  2.72361 0.12128 -1.11374
LeftToes  1.648e-009 -9.21574e-011 2.55256e-011
109
root  -16.6002 38.394 -15.7951 22.4657 -80.6789 -28.7549
RightUpLeg  -10.1139 -11.9222 0.430606
RightLeg  27.3736 5.10123 2.63874
RightFoot  -10.9942 -0.0747641 0.0830946
RightToes  -8.14909e-010 0 -3.6325e-017
Spine  9.13211 0.729734 18.5922
Spine1  7.15521 4.47981 -6.27178
HEad  -7.76986 11.1501 -8.39992
LeftShoulder1  -0.55322 4.88378 -33.9173
LeftArm  8.21567 11.9687 -41.7546
LeftForeArm  24.826 -34.2948 -6.2083
LeftHand  -0.00344437 6.24323 3.48245
RightShoulder  -0.759965 -5.68593 28.2016
RightArm  8.00249 15.9615 40.8885
RightForeArm  15.5286 3.97964 5.45088
RightHand  -0.0790349 2.73339 -1.34067
LeftUpLeg  -14.2332 -1.21904 4.32627
LeftLeg  63.3183 -0.778864 -1.0763
LeftFoot  0.177161 0.0546613 -0.539098
LeftToes  1.648e-009 -9.21574e-011 2.55256e-011
110
root  -17.9735 38.734 -15.8821 19.9168 -80.833 -26.1546
RightUpLeg  -6.34723 -12.486 -0.270052
RightLeg  24.7386 5.7184 2.91665
RightFoot  -11.9371 -0.0803133 0.0626786
RightToes  -8.14909e-010 0 -3.6325e-017
Spine  9.25042 1.27733 19.499
Spine1  6.17424 5.4396 -8.70833
HEad  -7.14864 11.3452 -8.71935
LeftShoulder1  -0.493062 4.76143 -33.067
LeftArm  8.74785 12.8498 -41.6857
LeftForeArm  25.1249 -34.5422 -6.25633
LeftHand  -0.0236648 5.50784 3.05327
RightShoulder  -0.759853 -5.67969 28.2788
RightArm  8.07864 19.7125 41.4649
RightForeArm  13.7722 6.31352 5.63321
RightHand  -0.0898693 3.72524 -1.41063
LeftUpLeg  -17.2975 0.286922 2.88683
LeftLeg  58.0544 -0.46855 -0.3022
LeftFoot  -2.05286 -0.0269541 0.484306
LeftToes  1.648e-009 -9.21574e-011 2.55256e-011
